HIERARCHY
ROOT Hips
{
	OFFSET 0.00000 0.00000 0.00000
	CHANNELS 6 Xposition Yposition Zposition Yrotation Zrotation Xrotation 
	JOINT Lumbar
	{
		OFFSET 0 0 0
		CHANNELS 3 Zrotation Xrotation Yrotation
		JOINT Neck
		{
			OFFSET 0.00 0.2701 0.00
			CHANNELS 3 Zrotation Xrotation Yrotation
			End Site
			{
				OFFSET 0.00 0.1379 0.00
			}
		}
		JOINT RightShoulder
		{
			OFFSET 0.0119 0.2289 0.1181
			CHANNELS 3 Zrotation Xrotation Yrotation
			JOINT RightElbow
			{
				OFFSET 0.00 -0.1475 0.00
				CHANNELS 2 Zrotation Yrotation
				JOINT RightWrist
				{
					OFFSET 0.00 -0.1605 0.00
					CHANNELS 2 Zrotation Xrotation
					End Site
					{
						OFFSET 0.0040 -0.1068 0.0006
					}
				}
			}
		}
		JOINT LeftShoulder
		{
			OFFSET 0.0119 0.2289 -0.1181
			CHANNELS 3 Zrotation Xrotation Yrotation
			JOINT LeftElbow
			{
				OFFSET 0.00 -0.1475 0.00
				CHANNELS 2 Zrotation Yrotation
				JOINT LeftWrist
				{
					OFFSET 0.00 -0.1605 0.00
					CHANNELS 2 Zrotation Xrotation
					End Site
					{
						OFFSET 0.0040 -0.1068 -0.0006
					}
				}
			}
		}
	}
	JOINT RightHip
	{
		OFFSET 0.0316 -0.0424 0.0458
		CHANNELS 3 Zrotation Xrotation Yrotation
		JOINT RightKnee
		{
			OFFSET 0.00 -0.2438 0.00
			CHANNELS 1 Zrotation
			JOINT RightAnkle
			{
				OFFSET 0.00 -0.2449 0.00
				CHANNELS 3 Zrotation Xrotation Yrotation
				End Site
				{
					OFFSET 0.1237 -0.0542 0.0051
				}
			}
		}
	}
	JOINT LeftHip
	{
		OFFSET 0.0316 -0.0424 -0.0458
		CHANNELS 3 Zrotation Xrotation Yrotation
		JOINT LeftKnee
		{
			OFFSET 0.00 -0.2438 0.00
			CHANNELS 1 Zrotation
			JOINT LeftAnkle
			{
				OFFSET 0.00 -0.2449 0.00
				CHANNELS 3 Zrotation Xrotation Yrotation
				End Site
				{
					OFFSET 0.1237 -0.0542 -0.0051
				}
			}
		}
	}
}
MOTION
Frames: 34
Frame Time: 0.02
-0.37743 0.57698 -0.01837 232.52166 0 1.06949 6.01517 -0.13725 2.96246 -28.20945 -4.21476 -1.32125 9.48043 -14.27894 26.93317 93.01599 75.82872 29.89538 -3.71903 19.53099 21.88791 -41.92391 107.62716 -83.46832 -15.63424 3.6233 1.59817 1.14495 15.22237 -26.20965 13.99347 -8.58646 -7.22755 10.91932 5.91001 -33.33633 -28.38499 9.90222 -0.31962 -2.83543
-0.38015 0.57605 -0.02511 235.28065 0 0.28235 5.23362 0.51626 2.02339 -27.28688 -3.55972 -1.38568 8.46247 -14.82051 26.89203 93.69023 75.93935 29.6872 -3.70574 18.8562 21.58551 -42.3652 107.68397 -84.55928 -16.31052 3.85184 1.30153 2.46138 12.9991 -25.37988 13.68668 -8.6675 -7.79323 12.77204 6.06246 -33.48079 -30.07295 9.44897 0.24574 -1.78546
-0.38224 0.57477 -0.03188 238.13396 0 -0.45451 4.32387 1.22311 1.08515 -26.20505 -2.91182 -1.43468 7.29277 -15.29596 26.72844 94.3827 75.98218 29.61431 -3.69604 18.09208 21.25762 -42.81986 107.81807 -85.49318 -17.00088 4.00442 1.1551 3.70676 10.7021 -24.65366 13.48499 -8.75339 -8.3238 14.65447 5.94523 -33.42359 -31.70446 8.90595 1.14665 -0.14998
-0.38459 0.5737 -0.03857 240.92047 0 -1.1834 3.48101 1.88853 0.1754 -25.21729 -2.27963 -1.48679 6.21331 -15.78446 26.62258 95.04851 76.06033 29.47556 -3.68455 17.3788 20.9469 -43.25293 107.90951 -86.48099 -17.6675 4.18928 0.94929 4.94888 8.4722 -23.89419 13.23567 -8.83283 -8.8738 16.46647 5.94942 -33.31391 -33.25525 8.40928 1.87731 1.22614
-0.38706 0.57244 -0.0455 243.81485 0 -2.0425 2.59853 2.62733 -0.86172 -24.13668 -1.56402 -1.55658 5.04125 -16.34646 26.50849 95.79446 76.1192 29.35295 -3.67405 16.62202 20.61365 -43.75603 108.03197 -87.55494 -18.41552 4.38694 0.71175 6.34232 6.10012 -23.08134 12.9821 -8.90774 -9.4068 18.52682 5.95602 -33.78567 -35.2581 7.88684 2.67979 2.5781
-0.38912 0.57149 -0.05195 246.50549 0 -2.61839 1.76995 3.22578 -1.63213 -23.21056 -1.02511 -1.58596 4.02608 -16.74002 26.38396 96.37827 76.20608 29.22766 -3.6616 15.93336 20.32182 -44.11407 108.10984 -88.40282 -18.99225 4.53751 0.57347 7.40213 4.00337 -22.40173 12.76404 -9.00067 -9.9653 20.07527 5.89284 -33.03043 -36.30913 7.39828 3.41229 4.1081
-0.39027 0.5715 -0.05708 248.59491 0 -2.42486 1.11455 3.42172 -1.65438 -22.76915 -0.97369 -1.50051 3.49362 -16.67154 26.23956 96.49166 76.33907 29.08809 -3.65057 15.47152 20.13903 -44.0761 108.02867 -88.7216 -19.11751 4.59049 0.67651 7.57132 2.72887 -22.07339 12.61489 -9.15694 -10.63347 20.18548 5.724 -28.66464 -34.69466 7.0174 3.88565 6.10947
-0.39101 0.57183 -0.06172 250.47701 0 -1.94821 0.51963 3.4748 -1.4092 -22.48538 -1.1003 -1.37576 3.12246 -16.43767 26.09249 96.44387 76.51079 28.93726 -3.63605 15.07831 20.00069 -43.8898 107.90293 -88.80703 -19.06526 4.59595 0.87293 7.40486 1.72726 -21.87379 12.49901 -9.33186 -11.32372 19.78171 5.49167 -23.11909 -32.13489 6.67548 4.27487 8.24991
-0.39191 0.57201 -0.06655 252.46402 0 -1.60069 -0.09817 3.59435 -1.29376 -22.11756 -1.14482 -1.27364 2.67004 -16.28795 25.96 96.48148 76.69573 28.77468 -3.61816 14.64306 19.84927 -43.76556 107.80873 -88.96059 -19.076 4.61365 1.02294 7.38314 0.57141 -21.60834 12.3706 -9.49187 -11.98426 19.62291 5.27422 -18.29587 -30.03732 6.32098 4.69237 10.24431
-0.39291 0.57217 -0.07149 254.41248 0 -1.24856 -0.74047 3.70916 -1.14518 -21.79732 -1.19376 -1.1518 2.24621 -16.09881 25.76666 96.46929 76.7488 28.68662 -3.62142 14.25103 19.66685 -43.66391 107.66994 -89.26738 -19.1585 4.66776 1.19422 7.39124 -0.463 -21.37567 12.23472 -9.67857 -12.72578 19.41594 5.10313 -12.69159 -27.79099 5.94134 5.16262 12.60012
-0.39361 0.57247 -0.0761 256.3868 0 -0.8406 -1.31502 3.79933 -1.00035 -21.41648 -1.27663 -1.06074 1.80267 -15.95235 25.70123 96.52131 77.08591 28.4406 -3.57963 13.78578 19.55999 -43.48047 107.61201 -89.20351 -19.05355 4.63631 1.34243 7.25926 -1.68015 -21.10633 12.12109 -9.81438 -13.30527 19.18846 4.82789 -8.42149 -25.6424 5.62488 5.49982 14.23944
-0.39358 0.5731 -0.07993 258.51586 0 -0.338 -1.72169 3.85486 -0.94609 -20.84019 -1.40153 -1.07442 1.27071 -15.9732 25.98834 96.79832 78.20581 27.74634 -3.41507 13.10846 19.64946 -43.10088 107.79086 -88.15665 -18.43545 4.37532 1.39419 6.81553 -3.50611 -20.6831 12.05908 -9.8039 -13.42403 19.01405 4.24809 -8.25883 -23.89332 5.47056 5.4784 13.76784
-0.39326 0.57385 -0.08343 260.67141 0 0.20884 -2.0604 3.89032 -0.90231 -20.19688 -1.55559 -1.11887 0.71366 -16.04157 26.40505 97.14392 79.61003 26.89566 -3.20491 12.35474 19.81342 -42.64492 108.05139 -86.74854 -17.64142 4.03105 1.42043 6.24412 -5.51798 -20.22191 12.01807 -9.74183 -13.3805 18.83879 3.5732 -9.45763 -22.29353 5.37939 5.32632 12.58431
-0.39306 0.57453 -0.08706 262.79302 0 0.72896 -2.42714 3.93597 -0.84368 -19.5775 -1.70208 -1.14234 0.16459 -16.08232 26.76396 97.45251 80.87804 26.12558 -3.01538 11.63134 19.94481 -42.22859 108.27285 -85.51765 -16.95414 3.7286 1.46425 5.73612 -7.41986 -19.79142 11.96805 -9.70423 -13.41679 18.67523 2.96441 -9.94307 -20.69351 5.26168 5.24035 11.79026
-0.39288 0.57528 -0.09076 265.00025 0 1.28741 -2.80547 3.97302 -0.8172 -18.98883 -1.83227 -1.19291 -0.36677 -16.14175 27.11828 97.77991 82.17308 25.31482 -2.82706 10.92693 20.07392 -41.78765 108.50246 -84.22403 -16.14998 3.40803 1.48675 5.1935 -9.42013 -19.30873 11.91711 -9.663 -13.42869 18.44915 2.25624 -10.77785 -18.77889 5.13642 5.12402 10.72929
-0.39261 0.57592 -0.09424 267.03772 0 1.77221 -3.14232 4.02399 -0.73109 -18.32107 -1.99914 -1.19614 -0.9402 -16.17689 27.51272 98.08679 83.48365 24.55204 -2.62429 10.16633 20.22288 -41.38009 108.73329 -82.97757 -15.54673 3.10564 1.54564 4.69721 -11.26292 -18.92405 11.87248 -9.6168 -13.45196 18.35583 1.73381 -11.23488 -17.56246 5.04108 5.03997 10.04548
-0.39217 0.57622 -0.09725 268.6033 0 2.04623 -3.39811 4.12837 -0.46778 -17.42642 -2.27523 -1.05038 -1.6489 -16.12385 27.98808 98.31853 84.72597 23.95897 -2.40266 9.24805 20.4255 -41.09718 108.96294 -81.95904 -15.5682 2.87796 1.71638 4.36084 -12.62751 -18.8186 11.84089 -9.56972 -13.55144 18.66519 1.74488 -10.22611 -18.28458 5.01559 5.08531 10.64251
-0.39165 0.57641 -0.10005 269.99702 0 2.24224 -3.6115 4.24634 -0.1475 -16.45839 -2.58344 -0.85814 -2.39529 -16.04719 28.49855 98.52842 85.98127 23.42075 -2.16643 8.27913 20.64207 -40.84786 109.18841 -81.00083 -15.79356 2.67106 1.92303 4.07732 -13.82759 -18.81251 11.81458 -9.51927 -13.66688 19.10388 1.94734 -8.81282 -19.70032 5.01745 5.16641 11.6303
-0.39115 0.57665 -0.10291 271.46888 0 2.47061 -3.83376 4.35219 0.13907 -15.53947 -2.86628 -0.69438 -3.1085 -15.98854 28.99232 98.75015 87.25827 22.85697 -1.93015 7.34739 20.84087 -40.57594 109.40576 -80.00894 -15.90915 2.45203 2.10956 3.77051 -15.10366 -18.76075 11.78516 -9.47017 -13.77161 19.46263 2.06383 -7.64956 -20.7722 5.00472 5.22621 12.39623
-0.39068 0.57689 -0.10591 272.94342 0 2.71491 -4.09816 4.48218 0.45927 -14.55165 -3.19607 -0.50047 -3.88971 -15.90125 29.49565 98.96585 88.43043 22.28659 -1.71967 6.3546 21.09073 -40.33563 109.66788 -79.02693 -16.09177 2.24091 2.31188 3.45495 -16.38321 -18.71011 11.75951 -9.42018 -13.88541 19.91109 2.1713 -6.25385 -21.96895 5.00294 5.30306 13.32616
-0.39014 0.57711 -0.10858 274.36868 0 2.90543 -4.26479 4.56561 0.72206 -13.69089 -3.43486 -0.3581 -4.53863 -15.86674 29.98333 99.18834 89.81813 21.74983 -1.45364 5.47621 21.23634 -40.0342 109.83514 -78.04822 -16.1842 2.01997 2.48944 3.17316 -17.61112 -18.68096 11.72698 -9.37175 -13.98604 20.20262 2.346 -5.2283 -23.0693 4.98453 5.35419 14.01427
-0.38947 0.57732 -0.11046 275.72043 0 2.97856 -4.17919 4.51548 0.82091 -13.19838 -3.41763 -0.36752 -4.80754 -15.98927 30.43473 99.43197 91.8133 21.25027 -1.02901 4.94112 21.0911 -39.58909 109.73651 -77.02359 -15.99409 1.76239 2.59629 2.96139 -18.75983 -18.68973 11.67404 -9.33013 -14.0488 20.03658 2.64491 -5.32418 -23.72677 4.90952 5.32872 13.95963
-0.38871 0.57752 -0.11202 277.02365 0 2.99781 -3.99567 4.41834 0.85878 -12.8369 -3.30676 -0.43027 -4.94339 -16.16424 30.86258 99.68301 94.01906 20.78996 -0.5509 4.52042 20.83934 -39.0729 109.54258 -76.00874 -15.70692 1.49575 2.67612 2.78416 -19.85619 -18.71671 11.61393 -9.29017 -14.09815 19.70645 3.00777 -5.8009 -24.26312 4.81781 5.27549 13.6466
-0.38797 0.57771 -0.1137 278.33665 0 3.03353 -3.85243 4.34408 0.91858 -12.4158 -3.23686 -0.47014 -5.14302 -16.31169 31.29424 99.93276 96.11881 20.34186 -0.10322 4.03797 20.63649 -38.57112 109.39576 -75.01876 -15.45062 1.23621 2.76395 2.59883 -20.96148 -18.73315 11.55706 -9.24859 -14.15287 19.44711 3.35187 -6.09488 -24.85993 4.73533 5.23443 13.44356
-0.38731 0.57794 -0.11549 279.69922 0 3.10019 -3.72531 4.26436 1.00344 -11.99148 -3.17572 -0.50413 -5.32804 -16.47496 31.76879 100.17464 98.26911 19.7743 0.37104 3.59524 20.43469 -38.15669 109.23482 -73.91035 -15.24523 0.96357 2.87022 2.38411 -22.12731 -18.76105 11.50044 -9.21044 -14.21101 19.20975 3.66049 -6.41177 -25.46156 4.64462 5.19929 13.29033
-0.38647 0.57809 -0.11698 280.9446 0 3.09088 -3.54216 4.18409 1.02258 -11.60713 -3.07252 -0.56183 -5.51388 -16.6167 32.13231 100.4329 100.35588 19.45717 0.80222 3.09725 20.20191 -37.52965 109.07815 -73.04583 -14.92315 0.71731 2.93226 2.23698 -23.15243 -18.77008 11.44158 -9.1657 -14.25874 18.88407 4.05397 -6.7823 -26.01104 4.56961 5.14116 12.96044
-0.3852 0.578 -0.11768 281.91814 0 2.88295 -3.22632 4.11902 0.86021 -11.29202 -2.88589 -0.6878 -5.71247 -16.69698 32.32514 100.75144 102.28579 19.88352 1.10328 2.42252 19.93891 -36.4453 108.97792 -72.88666 -14.17235 0.53237 2.86939 2.27787 -23.83892 -18.70449 11.37753 -9.10152 -14.28022 18.37073 4.68008 -7.15707 -26.47955 4.5172 5.05761 12.26266
-0.38373 0.57783 -0.11809 282.7686 0 2.60119 -2.85805 4.05412 0.63629 -11.0151 -2.65832 -0.83314 -5.92006 -16.75144 32.38055 101.08274 104.13243 20.54969 1.35881 1.68818 19.64364 -35.12728 108.88108 -72.9634 -13.33026 0.3762 2.76431 2.38346 -24.37939 -18.62166 11.31144 -9.03076 -14.29166 17.77104 5.38558 -7.58334 -26.89024 4.48568 4.94613 11.38491
-0.38231 0.5777 -0.11864 283.65042 0 2.35493 -2.51526 3.98551 0.4501 -10.72648 -2.4427 -0.95933 -6.13824 -16.81126 32.41584 101.39777 105.96967 21.06428 1.63374 0.97836 19.34288 -33.84365 108.76898 -72.91263 -12.615 0.21645 2.68479 2.45278 -24.96334 -18.55869 11.24694 -8.96367 -14.30825 17.199 6.045 -8.02208 -27.30166 4.4607 4.82642 10.54875
-0.38107 0.57756 -0.11917 284.63516 0 2.09851 -2.16203 3.93008 0.22071 -10.41678 -2.25132 -1.13071 -6.29123 -16.90154 32.80713 101.75897 108.00906 21.75637 1.91562 0.28167 19.12033 -32.86482 108.71237 -72.95841 -11.53829 0.01858 2.57827 2.55248 -25.64242 -18.44769 11.17999 -8.89407 -14.3223 16.66806 6.75006 -8.3253 -27.81616 4.36738 4.793 9.86789
-0.37941 0.57742 -0.11966 285.37573 0 1.84644 -1.81939 3.84848 0.06735 -10.16052 -2.00173 -1.21229 -6.58211 -16.9194 32.41434 102.02477 109.61073 22.13984 2.17199 -0.4559 18.73258 -31.19142 108.5411 -72.84587 -11.19136 -0.09576 2.51724 2.60359 -26.08879 -18.42982 11.11703 -8.82774 -14.33892 16.03588 7.37671 -8.91449 -28.10497 4.42167 4.57495 8.83121
-0.37674 0.57731 -0.12009 285.4821 0 1.62504 -1.51937 3.68962 0.14061 -10.0235 -1.59507 -1.03698 -7.26776 -16.76258 29.97808 102.04297 109.9738 21.57054 2.36554 -1.31121 17.86275 -27.70298 108.06255 -72.35363 -12.90468 0.03829 2.60193 2.50583 -25.93265 -18.69592 11.07192 -8.77525 -14.36981 15.12237 7.77767 -10.30972 -27.77362 4.87784 3.84234 6.79706
-0.37364 0.57721 -0.1205 285.34487 0 1.41085 -1.23233 3.50564 0.29273 -9.94176 -1.13296 -0.77093 -8.08985 -16.53053 26.74214 101.96148 109.90858 20.6889 2.53601 -2.20313 16.83463 -23.51702 107.46727 -71.67475 -15.35135 0.25118 2.73249 2.35625 -25.54612 -19.05247 11.02978 -8.72568 -14.403 14.11506 8.09426 -11.98292 -27.2201 5.482 2.92752 4.42415
-0.3707 0.57711 -0.12092 285.31361 0 1.19312 -0.93933 3.33659 0.40768 -9.84662 -0.70081 -0.54917 -8.83908 -16.3195 23.81342 101.91275 110.07002 19.97892 2.71829 -3.06536 15.90172 -19.61878 106.919 -71.00262 -17.44842 0.41139 2.83537 2.22982 -25.26341 -19.35211 10.98215 -8.67266 -14.43189 13.1665 8.443 -13.50891 -26.77561 6.01895 2.10336 2.2452
